<svg width="243" height="211" viewBox="0 0 243 211" fill="none" xmlns="http://www.w3.org/2000/svg">
<path d="M26 113.5C39.5 111.5 51.9774 104.189 59 97C66.0226 89.8105 74.5226 78.5 74.5226 75.3105C74.5226 68.7341 78 25 78 24C78 23.2 78 23.5 80.5 21.5L89 28.5V35.5M89 35.5C86.1667 35.6667 80.5 37.3 80.5 42.5C80.5 49 82 55.5 84.5 55.5C87 55.5 96 46.5 96 44.5C96 42.5 95 34 89 35.5Z" stroke="#333333" stroke-width="4"/>
<path d="M55 124C68.5 124 98 102.5 102.5 79.5L110 33M110 33C107.333 35 100.6 38.9 95 38.5M110 33L118.5 25.5L121 9.50001C117.333 7.33334 108.5 3.50001 102.5 5.50001C95 8.00001 89.5 17.5 89.5 19C89.5 20.2 89.1667 25.8333 89 28.5M44.5 14.5C49.5 22 63.8 37.5 81 39.5M26.5 26.5C31.8333 36 50.2 53.1 81 45.5M168.5 124.5C165.833 123.333 159.9 120 157.5 116C154.5 111 150.5 103 148 98.5C145.5 94 143.5 93.5 142.5 90.5C141.5 87.5 139.5 82 139 76.5C138.6 72.1 136.5 51.6667 135.5 42" stroke="#333333" stroke-width="4"/>
<path d="M114.5 29L125 46.5L144.5 31L147.5 32C153 50.1667 164.2 86.7 165 87.5C166 88.5 168 91 168 92C168 93 178 117 198 118.5" stroke="#333333" stroke-width="4"/>
<path d="M118.5 25.5C123 30.3333 132.7 40.4 135.5 42C139 44 152.5 52.5 154 53.5C155.5 54.5 173.5 61 183.5 60C193.5 59 209 58.5 217.5 46L178.5 30L121 9.5M154 50.5C156.667 46 162 34.7 162 25.5" stroke="#333333" stroke-width="4"/>
<path d="M167 57.5C171.5 55 177 33 177 30M184 59.5C186.8 57.1 191.667 43 192.5 37.5" stroke="#333333" stroke-width="4"/>
<path d="M118.5 8.5C129.833 7.33333 156.3 4.89998 163.5 4.49998C172.5 3.99998 207.271 1.38554 213.5 4.50001C217.5 6.50001 205 9.50003 196 9.50003C189.188 9.50003 147.667 10.1667 127 10.5" stroke="#333333" stroke-width="4"/>
<path d="M120.844 9.42008C132.209 10.2212 158.7 12.3789 165.861 13.2239C174.813 14.2802 209.515 17.6886 215.115 21.8285C218.711 24.4871 206 25.5723 197 24C190.29 22.8277 151.916 16.4521 131.5 13.2239" stroke="#333333" stroke-width="4"/>
<path d="M50.6465 197.793H55.8906V204.346C55.207 204.632 54.4779 204.847 53.7031 204.99C52.9284 205.127 52.1048 205.195 51.2324 205.195C49.7155 205.195 48.4362 204.909 47.3945 204.336C46.3594 203.757 45.5749 202.92 45.041 201.826C44.5072 200.732 44.2402 199.417 44.2402 197.881C44.2402 196.449 44.5299 195.176 45.1094 194.062C45.6953 192.949 46.5319 192.077 47.6191 191.445C48.7064 190.814 50.0085 190.498 51.5254 190.498C52.3066 190.498 53.0423 190.57 53.7324 190.713C54.429 190.856 55.0898 191.071 55.7148 191.357L55.3145 192.256C54.696 191.969 54.0645 191.755 53.4199 191.611C52.7819 191.468 52.1341 191.396 51.4766 191.396C50.1875 191.396 49.0775 191.673 48.1465 192.227C47.222 192.773 46.5124 193.535 46.0176 194.512C45.5293 195.482 45.2852 196.602 45.2852 197.871C45.2852 199.31 45.5228 200.505 45.998 201.455C46.4733 202.406 47.1667 203.118 48.0781 203.594C48.9961 204.069 50.1094 204.307 51.418 204.307C52.1341 204.307 52.7754 204.255 53.3418 204.15C53.9147 204.046 54.4323 203.91 54.8945 203.74V198.711H50.6465V197.793ZM73.6199 205L71.6766 199.951H65.6805L63.698 205H62.6727L68.2879 190.674H69.2059L74.6746 205H73.6199ZM71.3543 199.043L69.3816 193.691C69.3296 193.555 69.2645 193.379 69.1863 193.164C69.1147 192.949 69.0366 192.721 68.952 192.48C68.8738 192.24 68.7957 192.012 68.7176 191.797C68.6525 192.025 68.5809 192.253 68.5027 192.48C68.4246 192.708 68.3497 192.93 68.2781 193.145C68.2065 193.353 68.1382 193.542 68.073 193.711L66.0223 199.043H71.3543ZM89.7574 201.318C89.7574 202.171 89.5426 202.887 89.1129 203.467C88.6832 204.04 88.1005 204.473 87.3648 204.766C86.6292 205.052 85.7958 205.195 84.8648 205.195C84.2854 205.195 83.7581 205.166 83.2828 205.107C82.8141 205.055 82.3876 204.984 82.0035 204.893C81.6259 204.801 81.2809 204.697 80.9684 204.58V203.574C81.4762 203.77 82.0621 203.942 82.7262 204.092C83.3967 204.235 84.1259 204.307 84.9137 204.307C85.6559 204.307 86.3134 204.199 86.8863 203.984C87.4658 203.77 87.9215 203.444 88.2535 203.008C88.5855 202.572 88.7516 202.021 88.7516 201.357C88.7516 200.771 88.6116 200.293 88.3316 199.922C88.0582 199.544 87.6448 199.222 87.0914 198.955C86.538 198.682 85.8414 198.405 85.0016 198.125C84.4156 197.923 83.8818 197.712 83.4 197.49C82.9247 197.262 82.5178 197.002 82.1793 196.709C81.8408 196.41 81.5803 196.051 81.398 195.635C81.2223 195.212 81.1344 194.714 81.1344 194.141C81.1344 193.353 81.3329 192.692 81.7301 192.158C82.1337 191.618 82.6773 191.211 83.3609 190.938C84.051 190.658 84.8258 190.518 85.6852 190.518C86.3688 190.518 87.0165 190.583 87.6285 190.713C88.247 190.837 88.8427 191.025 89.4156 191.279L89.0641 192.148C88.4911 191.901 87.9182 191.719 87.3453 191.602C86.7724 191.484 86.206 191.426 85.6461 191.426C84.9755 191.426 84.3766 191.527 83.8492 191.729C83.3284 191.924 82.915 192.22 82.609 192.617C82.303 193.014 82.15 193.516 82.15 194.121C82.15 194.746 82.29 195.251 82.5699 195.635C82.8564 196.019 83.26 196.338 83.7809 196.592C84.3082 196.846 84.9299 197.093 85.6461 197.334C86.4924 197.62 87.2216 197.923 87.8336 198.242C88.4456 198.555 88.9176 198.952 89.2496 199.434C89.5882 199.915 89.7574 200.544 89.7574 201.318ZM101.745 205H100.729V191.631H96.1V190.723H106.373V191.631H101.745V205ZM117.169 190.723C118.302 190.723 119.246 190.846 120.001 191.094C120.763 191.341 121.336 191.748 121.72 192.314C122.104 192.881 122.296 193.646 122.296 194.609C122.296 195.332 122.163 195.954 121.896 196.475C121.635 196.989 121.274 197.412 120.812 197.744C120.349 198.076 119.816 198.33 119.21 198.506L123.126 205H121.935L118.253 198.789H114.708V205H113.702V190.723H117.169ZM117.071 191.611H114.708V197.9H117.55C118.715 197.9 119.624 197.62 120.275 197.061C120.932 196.501 121.261 195.697 121.261 194.648C121.261 193.496 120.916 192.702 120.226 192.266C119.536 191.829 118.484 191.611 117.071 191.611ZM142.809 197.842C142.809 198.929 142.675 199.922 142.408 200.82C142.141 201.719 141.741 202.493 141.207 203.145C140.673 203.796 140.006 204.3 139.205 204.658C138.411 205.016 137.483 205.195 136.422 205.195C135.354 205.195 134.42 205.016 133.619 204.658C132.818 204.3 132.151 203.796 131.617 203.145C131.09 202.487 130.693 201.709 130.426 200.811C130.159 199.906 130.025 198.91 130.025 197.822C130.025 196.377 130.27 195.104 130.758 194.004C131.253 192.904 131.979 192.044 132.936 191.426C133.899 190.807 135.087 190.498 136.5 190.498C137.854 190.498 139 190.794 139.938 191.387C140.882 191.973 141.594 192.816 142.076 193.916C142.564 195.01 142.809 196.318 142.809 197.842ZM131.08 197.832C131.08 199.108 131.272 200.234 131.656 201.211C132.04 202.181 132.63 202.939 133.424 203.486C134.218 204.033 135.221 204.307 136.432 204.307C137.656 204.307 138.661 204.036 139.449 203.496C140.237 202.956 140.82 202.201 141.197 201.23C141.575 200.26 141.764 199.131 141.764 197.842C141.764 195.804 141.318 194.222 140.426 193.096C139.54 191.969 138.232 191.406 136.5 191.406C135.283 191.406 134.27 191.676 133.463 192.217C132.662 192.757 132.063 193.509 131.666 194.473C131.275 195.436 131.08 196.556 131.08 197.832ZM154.796 190.723C156.495 190.723 157.768 191.048 158.614 191.699C159.46 192.35 159.884 193.363 159.884 194.736C159.884 195.439 159.77 196.064 159.542 196.611C159.32 197.152 158.985 197.607 158.536 197.979C158.087 198.35 157.524 198.63 156.846 198.818C156.176 199.007 155.391 199.102 154.493 199.102H152.296V205H151.29V190.723H154.796ZM154.688 191.611H152.296V198.213H154.395C155.32 198.213 156.114 198.109 156.778 197.9C157.442 197.686 157.953 197.327 158.311 196.826C158.669 196.325 158.848 195.641 158.848 194.775C158.848 193.675 158.51 192.874 157.833 192.373C157.156 191.865 156.108 191.611 154.688 191.611ZM178.707 190.723V199.961C178.707 201.074 178.492 202.021 178.062 202.803C177.632 203.577 177.014 204.17 176.207 204.58C175.406 204.99 174.446 205.195 173.326 205.195C171.627 205.195 170.321 204.736 169.41 203.818C168.498 202.894 168.043 201.595 168.043 199.922V190.723H169.039V199.922C169.039 201.354 169.41 202.445 170.152 203.193C170.901 203.936 171.975 204.307 173.375 204.307C174.293 204.307 175.074 204.144 175.718 203.818C176.363 203.486 176.854 203.005 177.193 202.373C177.532 201.735 177.701 200.964 177.701 200.059V190.723H178.707ZM187.784 190.723H191.7C193.464 190.723 194.753 190.999 195.567 191.553C196.387 192.106 196.797 192.988 196.797 194.199C196.797 194.746 196.69 195.244 196.475 195.693C196.267 196.143 195.954 196.52 195.538 196.826C195.127 197.126 194.62 197.331 194.014 197.441V197.51C194.737 197.62 195.332 197.822 195.801 198.115C196.276 198.402 196.628 198.783 196.856 199.258C197.09 199.727 197.207 200.286 197.207 200.938C197.207 201.875 196.993 202.643 196.563 203.242C196.14 203.841 195.551 204.284 194.795 204.57C194.04 204.857 193.168 205 192.178 205H187.784V190.723ZM188.789 197.07H191.954C193.295 197.07 194.265 196.836 194.864 196.367C195.463 195.898 195.762 195.205 195.762 194.287C195.762 193.337 195.44 192.653 194.795 192.236C194.151 191.82 193.119 191.611 191.7 191.611H188.789V197.07ZM188.789 197.949V204.111H192.149C193.47 204.111 194.467 203.844 195.137 203.311C195.808 202.77 196.143 201.966 196.143 200.898C196.143 200.195 195.987 199.629 195.674 199.199C195.362 198.763 194.893 198.447 194.268 198.252C193.649 198.05 192.878 197.949 191.954 197.949H188.789Z" fill="#333333"/>
<path fill-rule="evenodd" clip-rule="evenodd" d="M67.5254 162.869C68.1413 160.878 68.4492 158.673 68.4492 156.252C68.4492 152.972 67.9049 150.129 66.8164 147.723C65.7422 145.302 64.1237 143.426 61.9609 142.094C59.7982 140.762 57.084 140.096 53.8184 140.096C50.4811 140.096 47.7168 140.769 45.5254 142.115C43.3483 143.447 41.7227 145.324 40.6484 147.744C39.5885 150.15 39.0586 152.972 39.0586 156.209C39.0586 158.63 39.3594 160.835 39.9609 162.826C40.5625 164.817 41.4648 166.529 42.668 167.961C43.8854 169.393 45.4108 170.496 47.2441 171.27C49.0918 172.043 51.2689 172.43 53.7754 172.43C56.2389 172.43 58.3874 172.043 60.2207 171.27C62.054 170.496 63.5794 169.4 64.7969 167.982C66.0143 166.55 66.9238 164.846 67.5254 162.869ZM45.4609 162.547C44.8021 160.771 44.4727 158.673 44.4727 156.252C44.4727 153.803 44.8021 151.704 45.4609 149.957C46.1198 148.195 47.1367 146.842 48.5117 145.896C49.901 144.951 51.6699 144.479 53.8184 144.479C57.0267 144.479 59.3613 145.524 60.8223 147.615C62.2975 149.692 63.0352 152.571 63.0352 156.252C63.0352 158.673 62.7129 160.771 62.0684 162.547C61.4238 164.309 60.4212 165.669 59.0605 166.629C57.6999 167.574 55.9382 168.047 53.7754 168.047C51.627 168.047 49.8652 167.574 48.4902 166.629C47.1296 165.669 46.1198 164.309 45.4609 162.547ZM4.51172 145.768L13.5566 172H18.1113L27.5 145.811H27.6719C27.6432 146.412 27.6003 147.214 27.543 148.217C27.5 149.219 27.457 150.279 27.4141 151.396C27.3854 152.514 27.3711 153.552 27.3711 154.512V172H32.291V140.59H25.0723L16.0703 165.662H15.9414L7.24023 140.59H0V172H4.68359V154.77C4.68359 153.71 4.66211 152.6 4.61914 151.439C4.57617 150.279 4.52604 149.191 4.46875 148.174C4.41146 147.157 4.36133 146.355 4.31836 145.768H4.51172ZM93.3281 163.449C93.3281 165.311 92.8698 166.915 91.9531 168.262C91.0508 169.608 89.7474 170.639 88.043 171.355C86.3529 172.072 84.3333 172.43 81.9844 172.43C80.8385 172.43 79.7428 172.365 78.6973 172.236C77.6517 172.107 76.6634 171.921 75.7324 171.678C74.8158 171.42 73.9779 171.112 73.2188 170.754V165.898C74.4935 166.457 75.9186 166.965 77.4941 167.424C79.0697 167.868 80.6738 168.09 82.3066 168.09C83.6387 168.09 84.7415 167.918 85.6152 167.574C86.5033 167.216 87.1621 166.715 87.5918 166.07C88.0215 165.411 88.2363 164.645 88.2363 163.771C88.2363 162.84 87.9857 162.053 87.4844 161.408C86.9831 160.764 86.224 160.176 85.207 159.646C84.2044 159.102 82.944 158.522 81.4258 157.906C80.3945 157.491 79.4062 157.018 78.4609 156.488C77.5299 155.958 76.6992 155.335 75.9688 154.619C75.2383 153.903 74.6582 153.058 74.2285 152.084C73.8131 151.096 73.6055 149.936 73.6055 148.604C73.6055 146.827 74.028 145.309 74.873 144.049C75.7324 142.788 76.9355 141.822 78.4824 141.148C80.0436 140.475 81.8626 140.139 83.9395 140.139C85.5866 140.139 87.1335 140.311 88.5801 140.654C90.041 140.998 91.4733 141.485 92.877 142.115L91.2441 146.262C89.9551 145.732 88.7018 145.309 87.4844 144.994C86.2812 144.679 85.0495 144.521 83.7891 144.521C82.7005 144.521 81.7767 144.686 81.0176 145.016C80.2585 145.345 79.6784 145.811 79.2773 146.412C78.8906 146.999 78.6973 147.701 78.6973 148.518C78.6973 149.434 78.9193 150.208 79.3633 150.838C79.8216 151.454 80.5234 152.02 81.4688 152.535C82.4284 153.051 83.6602 153.624 85.1641 154.254C86.8971 154.97 88.3652 155.722 89.5684 156.51C90.7858 157.298 91.7168 158.243 92.3613 159.346C93.0059 160.434 93.3281 161.802 93.3281 163.449ZM126.328 162.955C126.958 160.936 127.273 158.701 127.273 156.252C127.273 152.972 126.729 150.129 125.641 147.723C124.566 145.302 122.948 143.426 120.785 142.094C118.622 140.762 115.908 140.096 112.643 140.096C109.305 140.096 106.541 140.769 104.35 142.115C102.173 143.447 100.547 145.324 99.4727 147.744C98.4128 150.15 97.8828 152.972 97.8828 156.209C97.8828 158.63 98.1836 160.835 98.7852 162.826C99.3867 164.817 100.289 166.529 101.492 167.961C102.71 169.393 104.235 170.496 106.068 171.27C107.916 172.043 110.093 172.43 112.6 172.43C112.729 172.43 112.857 172.423 112.986 172.408H113.416L119.324 179.477H126.199L118.723 171.377C120.642 170.646 122.232 169.565 123.492 168.133C124.753 166.701 125.698 164.975 126.328 162.955ZM104.285 162.547C103.626 160.771 103.297 158.673 103.297 156.252C103.297 153.803 103.626 151.704 104.285 149.957C104.944 148.195 105.961 146.842 107.336 145.896C108.725 144.951 110.494 144.479 112.643 144.479C115.851 144.479 118.186 145.524 119.646 147.615C121.122 149.692 121.859 152.571 121.859 156.252C121.859 158.673 121.537 160.771 120.893 162.547C120.248 164.309 119.245 165.669 117.885 166.629C116.524 167.574 114.762 168.047 112.6 168.047C110.451 168.047 108.689 167.574 107.314 166.629C105.954 165.669 104.944 164.309 104.285 162.547ZM158.684 158.996C161.084 158.9 163 156.924 163 154.5C163 152.076 161.084 150.1 158.684 150.004V158.996ZM158.684 147.002V140.59H153.549V160.355C153.549 161.988 153.291 163.385 152.775 164.545C152.274 165.691 151.486 166.564 150.412 167.166C149.352 167.753 147.977 168.047 146.287 168.047C143.838 168.047 141.997 167.424 140.766 166.178C139.534 164.932 138.918 162.998 138.918 160.377V140.59H133.762V160.828C133.762 164.337 134.807 167.152 136.898 169.271C139.004 171.377 142.069 172.43 146.094 172.43C148.915 172.43 151.257 171.928 153.119 170.926C154.981 169.909 156.37 168.534 157.287 166.801C158.062 165.359 158.514 163.758 158.644 161.999C162.72 161.922 166 158.594 166 154.5C166 150.419 162.741 147.1 158.684 147.002ZM172.719 140.59V172H177.875V140.59H172.719ZM201.061 172H195.883V144.973H186.688V140.59H210.234V144.973H201.061V172ZM242.01 162.869C242.626 160.878 242.934 158.673 242.934 156.252C242.934 152.972 242.389 150.129 241.301 147.723C240.227 145.302 238.608 143.426 236.445 142.094C234.283 140.762 231.568 140.096 228.303 140.096C224.965 140.096 222.201 140.769 220.01 142.115C217.833 143.447 216.207 145.324 215.133 147.744C214.073 150.15 213.543 152.972 213.543 156.209C213.543 158.63 213.844 160.835 214.445 162.826C215.047 164.817 215.949 166.529 217.152 167.961C218.37 169.393 219.895 170.496 221.729 171.27C223.576 172.043 225.753 172.43 228.26 172.43C230.723 172.43 232.872 172.043 234.705 171.27C236.538 170.496 238.064 169.4 239.281 167.982C240.499 166.55 241.408 164.846 242.01 162.869ZM219.945 162.547C219.286 160.771 218.957 158.673 218.957 156.252C218.957 153.803 219.286 151.704 219.945 149.957C220.604 148.195 221.621 146.842 222.996 145.896C224.385 144.951 226.154 144.479 228.303 144.479C231.511 144.479 233.846 145.524 235.307 147.615C236.782 149.692 237.52 152.571 237.52 156.252C237.52 158.673 237.197 160.771 236.553 162.547C235.908 164.309 234.906 165.669 233.545 166.629C232.184 167.574 230.423 168.047 228.26 168.047C226.111 168.047 224.35 167.574 222.975 166.629C221.614 165.669 220.604 164.309 219.945 162.547Z" fill="#333333"/>
</svg>
